<svg width="24" height="24" viewBox="0 0 24 24" fill="none" xmlns="http://www.w3.org/2000/svg">
<g id="Chat">
<path id="Icon" fill-rule="evenodd" clip-rule="evenodd" d="M2.45492 13.5641C1.06926 7.09772 5.99874 1 12.612 1C18.3489 1 22.9996 5.6507 22.9996 11.3876C22.9996 18.0008 16.9019 22.9303 10.4355 21.5447L8.43813 21.1167C8.18855 21.0632 7.9292 21.0776 7.68705 21.1583L4.71485 22.149C2.94464 22.7391 1.26051 21.055 1.85059 19.2847L2.84132 16.3125C2.92203 16.0704 2.9364 15.811 2.88292 15.5615L2.45492 13.5641ZM12.612 3C7.27203 3 3.29165 7.92368 4.41052 13.1451L4.83852 15.1424C4.96688 15.7414 4.9324 16.3638 4.73868 16.945L3.74795 19.9172C3.67905 20.1239 3.8757 20.3205 4.0824 20.2516L7.0546 19.2609C7.63575 19.0672 8.25819 19.0327 8.85719 19.1611L10.8545 19.5891C16.0759 20.7079 20.9996 16.7276 20.9996 11.3876C20.9996 6.75527 17.2443 3 12.612 3Z" fill="#218821"/>
</g>
</svg>
