<svg width="24" height="24" viewBox="0 0 24 24" fill="none" xmlns="http://www.w3.org/2000/svg">
<g id="trailingIcon2">
<g id="Icon">
<path d="M7.20078 12C7.20078 13.1046 6.30535 14 5.20078 14C4.09621 14 3.20078 13.1046 3.20078 12C3.20078 10.8954 4.09621 10 5.20078 10C6.30535 10 7.20078 10.8954 7.20078 12Z" fill="#218821"/>
<path d="M14.0008 12C14.0008 13.1046 13.1054 14 12.0008 14C10.8962 14 10.0008 13.1046 10.0008 12C10.0008 10.8954 10.8962 10 12.0008 10C13.1054 10 14.0008 10.8954 14.0008 12Z" fill="#218821"/>
<path d="M18.8008 14C19.9054 14 20.8008 13.1046 20.8008 12C20.8008 10.8954 19.9054 10 18.8008 10C17.6962 10 16.8008 10.8954 16.8008 12C16.8008 13.1046 17.6962 14 18.8008 14Z" fill="#218821"/>
</g>
</g>
</svg>
