<svg width="25" height="24" viewBox="0 0 25 24" fill="none" xmlns="http://www.w3.org/2000/svg">
<g id="Icon">
<path id="Icon_2" fill-rule="evenodd" clip-rule="evenodd" d="M3.98251 5.85737L1.74328 14.455C1.58535 14.9415 1.5 15.4608 1.5 16C1.5 18.7614 3.73858 21 6.5 21C9.26142 21 11.5 18.7614 11.5 16L11.4999 15.9617L11.4996 15.9375V14H13.5003V15.943L13.5001 15.9734L13.5 16C13.5 18.7614 15.7386 21 18.5 21C21.2614 21 23.5 18.7614 23.5 16C23.5 15.5451 23.4393 15.1044 23.3254 14.6856C23.3213 14.6644 23.3165 14.6432 23.311 14.6221L21.0189 5.85481C20.5792 4.17311 19.06 3 17.3217 3C15.2112 3 13.5003 4.7109 13.5003 6.8214V8H11.4996V6.82022C11.4996 4.71037 9.78925 3 7.6794 3C5.94038 3 4.42081 4.1745 3.98251 5.85737ZM7.6794 5C6.85081 5 6.12678 5.55961 5.91794 6.36145L4.61402 11.3679C5.19602 11.1307 5.83274 11 6.5 11C7.62543 11 8.66402 11.3718 9.49962 11.9993V6.82022C9.49962 5.81494 8.68468 5 7.6794 5ZM3.56171 15.4083C3.55836 15.4212 3.55477 15.4339 3.55095 15.4465C3.51749 15.6259 3.5 15.8109 3.5 16C3.5 17.6569 4.84315 19 6.5 19C8.14879 19 9.48691 17.6699 9.4999 16.0242L9.49962 16V15.9516C9.47378 14.3171 8.1407 13 6.5 13C5.18238 13 4.06316 13.8494 3.66009 15.0306L3.56171 15.4083ZM13.5003 12V10H11.4996V12H13.5003ZM21.5 16C21.5 17.6569 20.1569 19 18.5 19C16.8505 19 15.5119 17.6688 15.5001 16.0221L15.5003 16V15.9558C15.5239 14.3193 16.8579 13 18.5 13C20.1569 13 21.5 14.3431 21.5 16ZM15.5003 11.9994C16.3359 11.3719 17.3745 11 18.5 11C19.1703 11 19.8097 11.1319 20.3938 11.3711L19.0839 6.3607C18.8743 5.55914 18.1502 5 17.3217 5C16.3158 5 15.5003 5.81547 15.5003 6.8214V11.9994Z" fill="#142E14" fill-opacity="0.62"/>
</g>
</svg>
