<svg width="32" height="32" viewBox="0 0 32 32" fill="none" xmlns="http://www.w3.org/2000/svg">
<g id="Plus">
<path id="Icon" d="M14.7144 4.42854C14.7144 3.71846 15.29 3.14282 16.0001 3.14282C16.7102 3.14282 17.2858 3.71846 17.2858 4.42854V14.7143H27.3131C28.0232 14.7143 28.5988 15.2899 28.5988 16C28.5988 16.71 28.0232 17.2857 27.3131 17.2857H17.2858V27.313C17.2858 28.023 16.7102 28.5987 16.0001 28.5987C15.29 28.5987 14.7144 28.023 14.7144 27.313V17.2857H4.42866C3.71858 17.2857 3.14295 16.71 3.14295 16C3.14295 15.2899 3.71858 14.7143 4.42866 14.7143H14.7144V4.42854Z" fill="black"/>
</g>
</svg>
