<svg width="24" height="24" viewBox="0 0 24 24" fill="none" xmlns="http://www.w3.org/2000/svg">
<g id="trailingIcon2">
<path id="Icon" fill-rule="evenodd" clip-rule="evenodd" d="M7 19.6516L10.5357 16.6209C11.3783 15.8987 12.6217 15.8987 13.4643 16.6209L17 19.6516V4C17 3.44772 16.5523 3 16 3H8C7.44772 3 7 3.44772 7 4V19.6516ZM5 4V21.8258C5 22.6801 6.00212 23.141 6.65079 22.585L11.8373 18.1395C11.9309 18.0592 12.0691 18.0592 12.1627 18.1395L17.3492 22.585C17.9979 23.141 19 22.6801 19 21.8258V4C19 2.34315 17.6569 1 16 1H8C6.34315 1 5 2.34315 5 4Z" fill="#218821"/>
</g>
</svg>
